<?xml version="1.0" encoding="utf-8"?>
<!-- Generator: Adobe Illustrator 21.1.0, SVG Export Plug-In . SVG Version: 6.00 Build 0)  -->
<svg version="1.1" id="Layer_1" xmlns="http://www.w3.org/2000/svg" xmlns:xlink="http://www.w3.org/1999/xlink" x="0px" y="0px"
	 width="707px" height="704px" viewBox="0 0 707 704" enable-background="new 0 0 707 704" xml:space="preserve">
<g>
	<g>
		<g>
			<g>
				<path fill="#FFFFFF" d="M552.7,57.1c-134-88.6-307.2-71.2-420.9,32C245.2,0.2,407.1-10.8,533.9,73
					c158.5,104.8,202,318.3,97.2,476.7c-16.2,24.5-35.1,46.3-55.9,65.2c28.4-22.2,53.7-49.3,74.7-81.1
					C754.7,375.4,711.2,161.9,552.7,57.1z"/>
			</g>
		</g>
		<g>
			<g>
				<path fill="#FFFFFF" d="M623.8,322.7c6.7,109.3-52.5,216.8-157.6,266.5c-137.8,65.1-302.3,6.1-367.4-131.6
					c-12.3-26.1-20.2-53.2-23.9-80.3c2.1,34,10.5,68.2,26,100.9c65.1,137.8,229.6,196.7,367.3,131.6
					C579.9,556.9,639.8,438.9,623.8,322.7z"/>
			</g>
		</g>
		<g>
			<g>
				<path fill="#FFFFFF" d="M147.9,233.9c56.2-113.3,193.6-159.7,306.9-103.5c21.5,10.7,40.6,24.2,57,40c-18.9-21.1-42-39-68.9-52.4
					C329.5,61.9,192.1,108.3,136,221.6c-45.5,91.8-23.7,199.5,46.6,266.9C121.9,420.8,105.1,320.4,147.9,233.9z"/>
			</g>
		</g>
	</g>
	<g>
		<g>
			<path fill="#FFFFFF" d="M249.7,254.4c34.3-0.8,62.3,28.2,62.3,62.5c0,33.3-26.6,60.3-59.9,61.3c-33.9,1-64.4-24.4-64.4-58.3V214
				h25.8v105c0,21.1,21.3,36.8,42,33.7c20.5-3.2,32.9-25,28.8-45.3c-6.5-30.1-47.1-32.5-62.9-13.4v-31.7
				C231.1,256.8,238.2,254.6,249.7,254.4z"/>
			<path fill="#FFFFFF" d="M390.9,348.6h43.4v29.6h-99.5l70.9-102.9c7.9-11.4-4.9-31.7-17.7-34.1c-11.8-2.4-23.3,2-28.6,12.8
				c-9.7,20.1,4.5,35.1,4.5,35.1l-17.3,17.1c0,0-9.3-8.3-12.8-14.8c-9.5-17.1-9.3-34.1,1-50.6c7.7-12.2,13-19.3,25.6-24.2
				c9.1-3.5,15.6-3.7,25.2-3c19.1,1.8,32.3,8.7,42.8,24.6c7.1,10.6,10,19.1,9.3,31.9c-0.8,10.4-5.9,18.9-9.7,25.2
				C412.8,322.6,404.3,329.5,390.9,348.6z"/>
			<path fill="#FFFFFF" d="M521.6,254.4c34.3-0.8,62.3,28.2,62.3,62.5c0,33.3-26.6,60.3-59.9,61.3c-33.9,1-64.4-24.4-64.4-58.3V214
				h25.8v105c0,21.1,21.3,36.8,42,33.7c20.5-3.2,32.9-25,28.8-45.3c-6.5-30.1-47.1-32.5-62.9-13.4v-31.7
				C503.1,256.8,510.2,254.6,521.6,254.4z"/>
		</g>
	</g>
	<g>
		<path fill="#FFFFFF" d="M267.6,408.7V405c0-2.9-1-5.2-3.3-7c-4.5-3.7-16.9-3.2-19.3-3.2h-22.5c-13.5,0-18.3,1.1-21,3.9
			c-2.6,2.8-2.4,5.6-2.5,9v1.3c0.1,3.2,0.8,5.5,2.9,7.4c3.6,3.8,8.6,3.2,14.3,3.2h38.3c1.5,0,12,0.7,16.9,3.3c6,3.1,9.8,7.5,9.8,16
			v4.3c0,7.3-2.4,11.3-6.8,14.6c-8.8,6.7-23.3,5.4-35.3,5.4h-20.1c-3,0-15.4,1-24.7-5.8c-4.8-3.6-5.2-11.2-5.2-13.4v-4.9h10.5v4.1
			c0,2.9,0.5,5.2,2,7.1c3.3,4.9,16.7,4.5,27.6,4.5h14.4c3.7,0,19-0.3,23.5-4.2c2.4-2,3.4-4.1,3.4-6.9v-2.9c0-3.9-0.2-7.4-4-10.5
			c-2.7-2.3-8.1-2-13.5-2h-36.8c-1.4,0-10.8,0-16.3-2.2c-7.8-3-11.4-7.9-11.6-15.7v-2.6c0.2-8.2,2.1-15,11.3-18.8
			c6-2.4,21-2.6,28.3-2.6H239c11.5,0.1,27.9-0.4,33.9,6.3c4.2,4.6,5.5,7.7,5.4,13.2v2.9H267.6z"/>
		<path fill="#FFFFFF" d="M398.3,418.9v16c0,8.4-1.9,18.1-8.3,23.3c-6.7,5.8-27.2,4.9-36.1,4.9h-29.3c-1.1,0-23,1.2-29.2-7.6
			c-3.4-4.6-5.8-10.9-5.8-22.2v-14.9c0-11,2.2-22.3,8.9-27.3c7.5-5.8,30.1-4.8,34.2-4.8h30c4.3,0,22.3-0.2,28.7,6.4
			C396.4,398.2,398.3,407.3,398.3,418.9z M329,394.8c-9.2,0-19.7-0.4-23.3,4c-5.2,6.2-4.9,13.7-4.9,22.6v10.8
			c0,8.4,2.1,15.5,4.5,18.1c3.2,3.4,10.5,4.1,25.8,4.1h24.1c5.1,0,21.6,0.6,26-2.9c4.7-3.6,5.7-11.4,5.7-19v-10.1
			c0-9.5-0.1-19.7-5.7-24.1c-4.3-3.2-12.2-3.5-20.1-3.5H329z"/>
		<path fill="#FFFFFF" d="M406.9,386.3h79.5v8.5h-69.1v24.8h66.1v8.5h-66.1V463h-10.4V386.3z"/>
		<path fill="#FFFFFF" d="M583.7,394.8h-41.5V463h-9.8v-68.2h-42.9v-8.5h94.2V394.8z"/>
	</g>
</g>
</svg>
