<?xml version="1.0" encoding="utf-8"?>
<!-- Generator: Adobe Illustrator 21.1.0, SVG Export Plug-In . SVG Version: 6.00 Build 0)  -->
<svg version="1.1" id="Слой_1" xmlns="http://www.w3.org/2000/svg" xmlns:xlink="http://www.w3.org/1999/xlink" x="0px" y="0px"
	 width="231.4px" height="79.1px" viewBox="0 0 231.4 79.1" enable-background="new 0 0 231.4 79.1" xml:space="preserve">
<title>eHopper-white</title>
<path fill="#2E98DA" d="M68.3,12.9c1.1-1.5,2.8-3.1,10.6-6.9c12.1-5.8,29.9-6,29.9-6v6.1c0,0-16.2,0.2-28.6,3.4
	c-4,0.9-7.9,2.2-11.6,3.9c-0.1,0.1-0.3,0-0.3-0.1c0,0,0,0,0,0C68.2,13.2,68.2,13,68.3,12.9z"/>
<path fill="#FFFFFF" d="M169.1,21.6c-3.1,8,0.8,17.1,8.9,20.3c2,0.8,4,1.1,6.1,1.1c6.4-0.1,12.1-4.2,15.4-9.5l-4.7-1.8
	c-2.4,4.3-7.9,7.3-12.9,6c-2.8-0.7-4.4-2.3-6.2-4.3l23.6-10.5l-0.2-0.8C194.4,7.9,174.5,8,169.1,21.6z M163.8,27.2
	c0-7.9-6.2-15.8-14.3-15.8c-3.6,0-5.5,1.3-8.2,3.4l-0.1-2.6h-6v43.6h6l-0.1-16.4c2.9,2.2,4.5,3.5,8.3,3.5
	C158.3,42.9,163.8,35.2,163.8,27.2L163.8,27.2z M131.4,27.2c0-7.9-6.2-15.8-14.3-15.8c-3.6,0-5.5,1.3-8.2,3.4l-0.1-2.6h-6v43.6h6
	l-0.1-16.4c2.8,2.2,4.5,3.5,8.3,3.5C125.8,42.9,131.4,35.2,131.4,27.2L131.4,27.2z M1.1,21.6c-3.1,8,0.8,17.1,8.9,20.3
	c2,0.8,4,1.1,6.1,1.1c6.4-0.1,12.1-4.2,15.4-9.5l-4.7-1.8c-2.4,4.3-7.9,7.3-12.9,6c-2.8-0.7-4.4-2.3-6.2-4.3l23.6-10.5L31,22
	C26.4,7.9,6.5,8,1.1,21.6z M99.5,27.2c0-8.7-7-15.7-15.6-15.7c-0.1,0-0.2,0-0.4,0c-8.7,0-15.7,7-15.7,15.7s7,15.7,15.7,15.7l0,0
	c8.7,0.2,15.8-6.7,16-15.3C99.5,27.4,99.5,27.3,99.5,27.2L99.5,27.2z M93.5,27.2c0,5.6-4.2,10.6-10,10.6s-10-5.1-10-10.6
	s4.2-10.6,10-10.6S93.6,21.7,93.5,27.2L93.5,27.2z M23.7,20.6l0.4,0.5L5.9,29.3c-0.3-2.9-0.4-5,1-7.7c2.1-3.9,6.6-5.9,10.9-4.9
	C20.2,17.3,22.2,18.7,23.7,20.6z M125.3,27.3c0,5.6-3.7,10.6-9.7,10.6c-2.6,0-5-1.1-6.8-2.9V18.9c1.9-1.5,4.2-2.4,6.6-2.4
	C121.8,16.5,125.3,21.5,125.3,27.3z M157.7,27.3c0,5.6-3.7,10.6-9.7,10.6c-2.6,0-5-1.1-6.8-2.9V18.9c1.9-1.5,4.2-2.4,6.6-2.4
	C154.3,16.5,157.7,21.5,157.7,27.3z M191.7,20.6l0.4,0.5l-18.3,8.1c-0.3-2.9-0.4-5,1-7.7c2.1-3.9,6.6-5.9,10.9-4.9
	C188.2,17.3,190.3,18.7,191.7,20.6L191.7,20.6z M224.9,14.7c-1.8-1.8-4.1-3.3-6.6-3.3c-4.1,0-6,3.5-8,6.3v-5.5h-6v29.8h6V25.1
	c0-3.5,1.9-8,6.2-8c2.1,0,3.9,1.3,5.2,2.6L224.9,14.7z M64.2,42.1V3h-6v16.3H40V3h-6v39.1h6V23.9h18.1v18.2H64.2L64.2,42.1z"/>
<path fill="#FFFFFF" d="M228.7,12c0.5,0,0.9,0.1,1.3,0.4c0.4,0.2,0.8,0.6,1,1c0.2,0.4,0.4,0.9,0.4,1.4c0,0.5-0.1,0.9-0.4,1.3
	c-0.2,0.4-0.6,0.8-1,1c-0.8,0.5-1.9,0.5-2.7,0c-0.4-0.2-0.8-0.6-1-1c-0.2-0.4-0.4-0.9-0.4-1.3c0-0.5,0.1-0.9,0.4-1.4
	c0.2-0.4,0.6-0.8,1-1C227.8,12.1,228.2,12,228.7,12z M228.7,12.4c-0.4,0-0.8,0.1-1.1,0.3c-0.4,0.2-0.6,0.5-0.8,0.8
	c-0.4,0.7-0.4,1.6,0,2.2c0.2,0.4,0.5,0.6,0.8,0.8c0.7,0.4,1.5,0.4,2.2,0c0.3-0.2,0.6-0.5,0.8-0.8c0.4-0.7,0.4-1.6,0-2.2
	c-0.2-0.4-0.5-0.6-0.8-0.8C229.5,12.5,229.1,12.5,228.7,12.4z M227.5,16.2v-2.9h1c0.2,0,0.5,0,0.7,0.1c0.2,0.1,0.3,0.1,0.4,0.3
	c0.1,0.1,0.1,0.3,0.1,0.4c0,0.2-0.1,0.4-0.2,0.5c-0.2,0.2-0.4,0.3-0.6,0.3c0.1,0,0.2,0.1,0.2,0.1c0.2,0.2,0.3,0.4,0.4,0.6l0.4,0.6
	h-0.6l-0.3-0.5c-0.1-0.3-0.3-0.5-0.5-0.7c-0.1-0.1-0.2-0.1-0.4-0.1H228v1.2L227.5,16.2L227.5,16.2z M228,14.6h0.6
	c0.2,0,0.4,0,0.6-0.1c0.2-0.1,0.2-0.4,0.1-0.5c-0.1-0.1-0.1-0.1-0.2-0.1c-0.2,0-0.3,0-0.5,0H228L228,14.6L228,14.6z"/>
<g>
	<path fill="#FFFFFF" d="M79.6,63.2c0.6-0.2,1.4-0.3,2.2-0.3c1,0,1.9,0.3,2.5,0.9c0.5,0.5,0.7,1.2,0.7,2.1c0,1.3-0.6,2.4-1.2,3.1
		c-0.8,0.8-1.9,1.1-3.1,1.1c-0.4,0-0.7,0-1-0.1l-0.8,4.7h-1.2L79.6,63.2z M79.9,68.8c0.4,0.1,0.7,0.1,1,0.1c1.7,0,2.9-1.2,2.9-2.9
		c0-1.4-0.9-2-2-2c-0.5,0-0.9,0.1-1.1,0.1L79.9,68.8z"/>
	<path fill="#FFFFFF" d="M92.1,69.6c0,2.6-1.6,5.3-4.1,5.3c-1.8,0-2.9-1.6-2.9-3.5c0-2.8,1.7-5.4,4.1-5.4
		C91.2,66.1,92.1,67.8,92.1,69.6z M86.4,71.4c0,1.4,0.7,2.4,1.7,2.4c1.5,0,2.6-2.2,2.6-4.2c0-1-0.4-2.4-1.7-2.4
		C87.5,67.3,86.4,69.5,86.4,71.4z"/>
	<path fill="#FFFFFF" d="M94.6,66.3l0.3,4.8c0.1,1,0,1.6,0,2.3h0c0.2-0.5,0.4-1.3,0.8-2.1l2.2-4.9H99l0.5,4.8
		c0.1,0.9,0.1,1.6,0.1,2.2h0c0.2-0.7,0.4-1.3,0.7-2.1l2-4.9h1.3l-3.6,8.5h-1.2l-0.5-4.6c-0.1-0.8-0.1-1.5-0.1-2.2h0
		c-0.3,0.8-0.5,1.5-0.8,2.2l-2.1,4.6H94l-0.7-8.5H94.6z"/>
	<path fill="#FFFFFF" d="M108.7,74.3c-0.5,0.4-1.4,0.7-2.4,0.7c-1.9,0-2.8-1.5-2.8-3.4c0-2.6,1.6-5.4,4-5.4c1.4,0,2.2,1,2.2,2.2
		c0,2.2-2.2,2.8-4.9,2.8c-0.1,0.4,0,1.2,0.2,1.6c0.3,0.8,0.9,1.1,1.6,1.1c0.9,0,1.5-0.3,2-0.6L108.7,74.3z M107.3,67.3
		c-1.2,0-2.1,1.3-2.4,2.7c2,0,3.5-0.3,3.5-1.6C108.5,67.6,108,67.3,107.3,67.3z"/>
	<path fill="#FFFFFF" d="M110.3,74.8l0.9-5.5c0.2-1.1,0.3-2.2,0.4-3h1.1c-0.1,0.6-0.1,1.2-0.2,1.8h0c0.5-1.2,1.3-2,2.2-2
		c0.1,0,0.3,0,0.3,0l-0.2,1.4c-0.1,0-0.2,0-0.3,0c-1.1,0-2.1,1.5-2.4,3.5l-0.6,3.7H110.3z"/>
	<path fill="#FFFFFF" d="M120.4,74.3c-0.5,0.4-1.4,0.7-2.4,0.7c-1.9,0-2.8-1.5-2.8-3.4c0-2.6,1.6-5.4,4-5.4c1.4,0,2.2,1,2.2,2.2
		c0,2.2-2.2,2.8-4.9,2.8c-0.1,0.4,0,1.2,0.2,1.6c0.3,0.8,0.9,1.1,1.6,1.1c0.9,0,1.5-0.3,2-0.6L120.4,74.3z M119,67.3
		c-1.2,0-2.1,1.3-2.4,2.7c2,0,3.5-0.3,3.5-1.6C120.1,67.6,119.6,67.3,119,67.3z"/>
	<path fill="#FFFFFF" d="M129.7,62.4l-1.6,9.7c-0.2,0.9-0.3,1.9-0.3,2.7h-1.2l0.2-1.7h0c-0.7,1.2-1.6,1.9-2.6,1.9
		c-1.4,0-2.2-1.3-2.2-3.1c0-3,1.9-5.8,4.5-5.8c0.5,0,1,0.1,1.3,0.3l0.7-4.1H129.7z M127.6,67.6c-0.3-0.2-0.7-0.3-1.2-0.3
		c-1.8,0-3.1,2.1-3.1,4.4c0,1,0.3,2.1,1.4,2.1c1,0,2.1-1.3,2.5-3.2L127.6,67.6z"/>
	<path fill="#FFFFFF" d="M135.9,62.4l-1,5.5h0c0.7-1.1,1.6-1.7,2.6-1.7c1.6,0,2.2,1.5,2.2,3c0,2.6-1.6,5.8-4.6,5.8
		c-1.3,0-2.3-0.6-2.3-2.2c0-0.4,0.1-0.9,0.1-1.3l1.6-9.1H135.9z M134.3,71.5c-0.1,0.3-0.1,0.6-0.1,1.1c0,0.8,0.4,1.3,1.2,1.3
		c1.9,0,3-2.6,3-4.5c0-1-0.4-2-1.4-2c-1.1,0-2.2,1.3-2.6,3.3L134.3,71.5z"/>
	<path fill="#FFFFFF" d="M142.1,66.3l0.7,4.6c0.2,1,0.3,1.6,0.3,2.2h0c0.2-0.5,0.4-1.1,0.8-2.1l1.9-4.7h1.3l-2.7,6.4
		c-0.8,1.8-1.5,3.3-2.5,4.4c-0.8,1-1.7,1.4-2.1,1.5l-0.3-1.2c0.3-0.1,0.8-0.4,1.3-0.8c0.5-0.4,1-1.1,1.4-1.9c0.1-0.1,0.1-0.2,0-0.4
		l-1.5-8H142.1z"/>
	<path fill="#FFFFFF" d="M151.3,57.3c0.9-0.2,2.2-0.4,3.6-0.4c2,0,3.3,0.4,4.2,1.3c0.8,0.7,1.3,1.7,1.3,3.1c0,1.7-1,3.2-2.6,3.9v0.1
		c1.5,0.4,3.2,1.8,3.2,4.4c0,1.5-0.5,2.7-1.3,3.5c-1.1,1.1-2.8,1.7-5.3,1.7c-1.4,0-2.4-0.1-3.1-0.2V57.3z M153.3,64.6h1.8
		c2.1,0,3.3-1.3,3.3-3c0-2.1-1.4-2.9-3.4-2.9c-0.9,0-1.4,0.1-1.8,0.2V64.6z M153.3,73c0.4,0.1,1,0.1,1.7,0.1c2.1,0,3.9-0.9,3.9-3.4
		c0-2.4-1.8-3.4-4-3.4h-1.6V73z"/>
	<path fill="#FFFFFF" d="M162.9,74.8v-1.4l1.6-1.8c3.8-4.1,5.5-6.4,5.5-8.9c0-1.7-0.7-3.3-2.9-3.3c-1.3,0-2.5,0.8-3.1,1.4l-0.6-1.6
		c1-1,2.5-1.7,4.2-1.7c3.2,0,4.5,2.5,4.5,5c0,3.1-2,5.7-5.1,9.2l-1.2,1.3v0.1h6.6v1.9H162.9z"/>
	<path fill="#FFFFFF" d="M175.3,57.3c0.9-0.2,2.2-0.4,3.6-0.4c2,0,3.3,0.4,4.2,1.3c0.8,0.7,1.3,1.7,1.3,3.1c0,1.7-1,3.2-2.6,3.9v0.1
		c1.5,0.4,3.2,1.8,3.2,4.4c0,1.5-0.5,2.7-1.3,3.5c-1.1,1.1-2.8,1.7-5.3,1.7c-1.4,0-2.4-0.1-3.1-0.2V57.3z M177.3,64.6h1.8
		c2.1,0,3.3-1.3,3.3-3c0-2.1-1.4-2.9-3.4-2.9c-0.9,0-1.4,0.1-1.8,0.2V64.6z M177.3,73c0.4,0.1,1,0.1,1.7,0.1c2.1,0,3.9-0.9,3.9-3.4
		c0-2.4-1.8-3.4-4-3.4h-1.6V73z"/>
	<path fill="#FFFFFF" d="M187.4,72c0.9,0.6,2.2,1.2,3.6,1.2c2,0,3.2-1.2,3.2-3c0-1.7-0.8-2.6-2.9-3.5c-2.5-1-4.1-2.5-4.1-5
		c0-2.8,2-4.8,5-4.8c1.6,0,2.7,0.4,3.4,0.9l-0.5,1.9c-0.5-0.3-1.5-0.8-2.9-0.8c-2.1,0-2.9,1.4-2.9,2.7c0,1.7,0.9,2.5,3.1,3.4
		c2.6,1.2,3.9,2.6,3.9,5.2c0,2.7-1.8,5.1-5.4,5.1c-1.5,0-3.1-0.5-3.9-1.1L187.4,72z"/>
	<path fill="#FFFFFF" d="M208.9,68.3c0,4.7-2.8,6.7-5.5,6.7c-3,0-5.3-2.5-5.3-6.5c0-4.3,2.4-6.7,5.5-6.7
		C206.8,61.8,208.9,64.4,208.9,68.3z M200.2,68.4c0,2.8,1.4,4.9,3.3,4.9c1.9,0,3.3-2.1,3.3-4.9c0-2.2-0.9-4.9-3.3-4.9
		C201.2,63.5,200.2,66,200.2,68.4z"/>
	<path fill="#FFFFFF" d="M211.6,74.8V63.8h-1.5v-1.8h1.5v-0.6c0-1.8,0.3-3.4,1.3-4.4c0.8-0.8,1.8-1.2,2.7-1.2c0.7,0,1.3,0.2,1.7,0.4
		L217,58c-0.3-0.2-0.7-0.3-1.3-0.3c-1.7,0-2.1,1.7-2.1,3.7v0.7h2.7v1.8h-2.7v10.9H211.6z"/>
	<path fill="#FFFFFF" d="M220.7,58.4v3.6h2.9v1.8h-2.9v6.8c0,1.6,0.4,2.5,1.5,2.5c0.5,0,0.9-0.1,1.2-0.2l0.1,1.7
		c-0.4,0.2-1,0.3-1.8,0.3c-0.9,0-1.7-0.3-2.2-1c-0.6-0.7-0.8-1.8-0.8-3.3v-6.9h-1.7v-1.8h1.7v-3L220.7,58.4z"/>
</g>
</svg>
