<?xml version="1.0" encoding="utf-8"?>
<!-- Generator: Adobe Illustrator 21.1.0, SVG Export Plug-In . SVG Version: 6.00 Build 0)  -->
<svg version="1.1" id="Слой_1" xmlns="http://www.w3.org/2000/svg" xmlns:xlink="http://www.w3.org/1999/xlink" x="0px" y="0px"
	 width="231.4px" height="55.9px" viewBox="0 0 231.4 55.9" enable-background="new 0 0 231.4 55.9" xml:space="preserve">
<title>eHopper-white</title>
<path fill="#2E98DA" d="M68.3,12.9c1.1-1.5,2.8-3.1,10.6-6.9c12.1-5.8,29.9-6,29.9-6v6.1c0,0-16.2,0.2-28.6,3.4
	c-4,0.9-7.9,2.2-11.6,3.9c-0.1,0.1-0.3,0-0.3-0.1c0,0,0,0,0,0C68.2,13.2,68.2,13,68.3,12.9z"/>
<path fill="#FFFFFF" d="M169.1,21.7c-3.1,8,0.8,17.1,8.9,20.3c2,0.8,4,1.1,6.1,1.1c6.4-0.1,12.1-4.2,15.4-9.5l-4.7-1.8
	c-2.4,4.3-7.9,7.3-12.9,6c-2.8-0.7-4.4-2.3-6.2-4.3l23.6-10.5l-0.2-0.8C194.4,7.9,174.6,8.1,169.1,21.7z M163.9,27.3
	c0-7.9-6.2-15.8-14.3-15.8c-3.6,0-5.5,1.3-8.2,3.4l-0.1-2.6h-6v43.6h6l-0.1-16.4c2.9,2.2,4.5,3.5,8.3,3.5
	C158.3,42.9,163.9,35.2,163.9,27.3L163.9,27.3z M131.4,27.3c0-7.9-6.2-15.8-14.3-15.8c-3.6,0-5.5,1.3-8.2,3.4l-0.1-2.6h-6v43.6h6
	l-0.1-16.4c2.8,2.2,4.5,3.5,8.3,3.5C125.9,42.9,131.4,35.2,131.4,27.3L131.4,27.3z M1.1,21.7c-3.1,8,0.8,17.1,8.9,20.3
	c2,0.8,4,1.1,6.1,1.1c6.4-0.1,12.1-4.2,15.4-9.5l-4.7-1.8c-2.4,4.3-7.9,7.3-12.9,6c-2.8-0.7-4.4-2.3-6.2-4.3l23.6-10.5l-0.2-0.8
	C26.4,7.9,6.5,8.1,1.1,21.7z M99.6,27.2c0-8.7-7-15.7-15.6-15.7c-0.1,0-0.2,0-0.4,0c-8.7,0-15.7,7-15.7,15.7s7,15.7,15.7,15.7l0,0
	c8.7,0.2,15.8-6.7,16-15.3C99.6,27.5,99.6,27.3,99.6,27.2L99.6,27.2z M93.6,27.2c0,5.6-4.2,10.6-10,10.6s-10-5.1-10-10.6
	s4.2-10.6,10-10.6S93.6,21.7,93.6,27.2L93.6,27.2z M23.8,20.7l0.4,0.5L5.9,29.3c-0.3-2.9-0.4-5,1-7.7c2.1-3.9,6.6-5.9,10.9-4.9
	C20.2,17.4,22.3,18.7,23.8,20.7z M125.3,27.3c0,5.6-3.7,10.6-9.7,10.6c-2.6,0-5-1.1-6.8-2.9V19c1.9-1.5,4.2-2.4,6.6-2.4
	C121.9,16.5,125.3,21.5,125.3,27.3z M157.8,27.3c0,5.6-3.7,10.6-9.7,10.6c-2.6,0-5-1.1-6.8-2.9V19c1.9-1.5,4.2-2.4,6.6-2.4
	C154.3,16.5,157.8,21.5,157.8,27.3z M191.8,20.7l0.4,0.5l-18.3,8.1c-0.3-2.9-0.4-5,1-7.7c2.1-3.9,6.6-5.9,10.9-4.9
	C188.2,17.4,190.3,18.7,191.8,20.7L191.8,20.7z M224.9,14.8c-1.8-1.8-4.1-3.3-6.6-3.3c-4.1,0-6,3.5-8,6.3v-5.5h-6v29.8h6V25.2
	c0-3.5,1.9-8,6.2-8c2.1,0,3.9,1.3,5.2,2.6L224.9,14.8z M64.2,42.1V3h-6v16.3H40.1V3h-6v39.1h6V23.9h18.1v18.2H64.2L64.2,42.1z"/>
<path fill="#FFFFFF" d="M228.7,12c0.5,0,0.9,0.1,1.3,0.4c0.4,0.2,0.8,0.6,1,1c0.2,0.4,0.4,0.9,0.4,1.4c0,0.5-0.1,0.9-0.4,1.3
	c-0.2,0.4-0.6,0.8-1,1c-0.8,0.5-1.9,0.5-2.7,0c-0.4-0.2-0.8-0.6-1-1c-0.2-0.4-0.4-0.9-0.4-1.3c0-0.5,0.1-0.9,0.4-1.4
	c0.2-0.4,0.6-0.8,1-1C227.8,12.2,228.3,12.1,228.7,12z M228.7,12.5c-0.4,0-0.8,0.1-1.1,0.3c-0.4,0.2-0.6,0.5-0.8,0.8
	c-0.4,0.7-0.4,1.6,0,2.2c0.2,0.4,0.5,0.6,0.8,0.8c0.7,0.4,1.5,0.4,2.2,0c0.3-0.2,0.6-0.5,0.8-0.8c0.4-0.7,0.4-1.6,0-2.2
	c-0.2-0.4-0.5-0.6-0.8-0.8C229.5,12.6,229.1,12.5,228.7,12.5z M227.6,16.2v-2.9h1c0.2,0,0.5,0,0.7,0.1c0.2,0.1,0.3,0.1,0.4,0.3
	c0.1,0.1,0.1,0.3,0.1,0.4c0,0.2-0.1,0.4-0.2,0.5c-0.2,0.2-0.4,0.3-0.6,0.3c0.1,0,0.2,0.1,0.2,0.1c0.2,0.2,0.3,0.4,0.4,0.6l0.4,0.6
	h-0.6l-0.3-0.5c-0.1-0.3-0.3-0.5-0.5-0.7c-0.1-0.1-0.2-0.1-0.4-0.1H228v1.2L227.6,16.2L227.6,16.2z M228,14.7h0.6
	c0.2,0,0.4,0,0.6-0.1c0.2-0.1,0.2-0.4,0.1-0.5c-0.1-0.1-0.1-0.1-0.2-0.1c-0.2,0-0.3,0-0.5,0H228L228,14.7L228,14.7z"/>
</svg>
