<svg xmlns="http://www.w3.org/2000/svg" viewBox="0 0 231.43 55.9"><defs><style>.a{fill:#2e98da;}.b{fill:#fff;}</style></defs><title>eHopper-white</title><path class="a" d="M69.91,17.28c1.12-1.49,2.81-3.15,10.63-6.89,12.13-5.81,29.93-6,29.93-6v6.14s-16.15.16-28.62,3.37a64.07,64.07,0,0,0-11.63,3.88,0.25,0.25,0,0,1-.36-0.09A0.31,0.31,0,0,1,69.91,17.28Z" transform="translate(-1.57 -4.34)"/><path class="b" d="M170.72,26a15.63,15.63,0,0,0,15,21.32c6.44-.11,12.14-4.17,15.39-9.49L196.42,36c-2.44,4.27-7.92,7.26-12.87,6-2.79-.7-4.38-2.28-6.22-4.34L200.93,27.2l-0.25-.79C196,12.28,176.14,12.39,170.72,26Zm-5.26,5.6c0-7.91-6.17-15.77-14.29-15.77-3.55,0-5.5,1.29-8.16,3.42l-0.09-2.65h-6V60.24h6l-0.06-16.42c2.85,2.25,4.52,3.46,8.31,3.46C159.89,47.28,165.46,39.59,165.46,31.61Zm-32.44,0c0-7.91-6.17-15.77-14.29-15.77-3.55,0-5.5,1.29-8.16,3.42l-0.09-2.65h-6V60.24h6l-0.06-16.42c2.85,2.25,4.51,3.46,8.31,3.46C127.45,47.28,133,39.59,133,31.61ZM2.69,26a15.63,15.63,0,0,0,15,21.32c6.44-.11,12.14-4.17,15.39-9.49L28.39,36C26,40.31,20.47,43.3,15.52,42c-2.79-.7-4.38-2.28-6.22-4.34L32.9,27.2l-0.25-.79C28,12.28,8.11,12.39,2.69,26Zm98.47,5.55a15.68,15.68,0,0,0-16-15.72,15.72,15.72,0,1,0,0,31.44A15.67,15.67,0,0,0,101.16,31.56Zm-6,0c0,5.58-4.15,10.64-10,10.64s-10-5.07-10-10.64,4.15-10.64,10-10.64S95.21,26.06,95.21,31.56ZM25.35,25l0.44,0.5L7.51,33.67c-0.34-2.87-.43-5,1-7.67a9.7,9.7,0,0,1,10.9-4.86A10.85,10.85,0,0,1,25.35,25ZM126.9,31.67c0,5.64-3.67,10.64-9.74,10.64a9.56,9.56,0,0,1-6.77-2.91V23.29a10.86,10.86,0,0,1,6.6-2.43C123.44,20.86,126.9,25.89,126.9,31.67Zm32.44,0c0,5.64-3.67,10.64-9.74,10.64a9.55,9.55,0,0,1-6.76-2.91V23.29a10.85,10.85,0,0,1,6.6-2.43C155.88,20.86,159.34,25.89,159.34,31.67Zm34-6.64,0.44,0.5-18.27,8.14c-0.34-2.87-.43-5,1-7.67a9.7,9.7,0,0,1,10.9-4.86A10.85,10.85,0,0,1,193.38,25Zm33.14-5.92c-1.82-1.78-4.12-3.27-6.61-3.27-4.09,0-6,3.49-8,6.34V16.66h-6V46.45h6V29.53c0-3.46,1.87-8,6.25-8,2.07,0,3.86,1.31,5.22,2.6ZM65.81,46.47V7.36h-6V23.65H41.66V7.36h-6V46.47h6V28.28H59.8V46.47h6Z" transform="translate(-1.57 -4.34)"/><path class="b" d="M230.3,16.39a2.77,2.77,0,0,1,1.33.35,2.49,2.49,0,0,1,1,1A2.75,2.75,0,0,1,233,19.1a2.72,2.72,0,0,1-.36,1.34,2.49,2.49,0,0,1-1,1,2.71,2.71,0,0,1-2.69,0,2.51,2.51,0,0,1-1-1,2.71,2.71,0,0,1-.36-1.34,2.73,2.73,0,0,1,.36-1.35,2.49,2.49,0,0,1,1-1A2.76,2.76,0,0,1,230.3,16.39Zm0,0.45a2.3,2.3,0,0,0-1.11.29,2.09,2.09,0,0,0-.84.83,2.24,2.24,0,0,0,0,2.25,2.11,2.11,0,0,0,.84.83,2.25,2.25,0,0,0,2.24,0,2.11,2.11,0,0,0,.83-0.83,2.25,2.25,0,0,0,0-2.25,2.08,2.08,0,0,0-.84-0.83A2.31,2.31,0,0,0,230.3,16.84Zm-1.18,3.74v-2.9h1a2.45,2.45,0,0,1,.74.08,0.73,0.73,0,0,1,.37.28,0.75,0.75,0,0,1,.14.43,0.77,0.77,0,0,1-.23.55,0.9,0.9,0,0,1-.6.26,0.8,0.8,0,0,1,.25.15,3.35,3.35,0,0,1,.43.57l0.35,0.57H231l-0.26-.46a2.35,2.35,0,0,0-.49-0.68,0.6,0.6,0,0,0-.38-0.1h-0.27v1.23h-0.47ZM229.59,19h0.57a0.92,0.92,0,0,0,.56-0.12,0.41,0.41,0,0,0,.08-0.55,0.43,0.43,0,0,0-.2-0.15,1.48,1.48,0,0,0-.47,0h-0.53V19Z" transform="translate(-1.57 -4.34)"/></svg>