<svg version="1.1" xmlns="http://www.w3.org/2000/svg" xmlns:xlink="http://www.w3.org/1999/xlink" viewBox="0 0 18 18"><path d="M7.9 17c-.5 0-.9-.2-1.3-.5l-5.1-5.1c-.7-.7-.7-1.9 0-2.6L8.3 2C8.9 1.4 10 .9 10.8.9h4.3c1 0 1.8.8 1.8 1.8V7c0 .8-.5 1.9-1.1 2.5L9 16.3c-.2.5-.6.7-1.1.7zm2.9-14.9c-.5 0-1.4.3-1.7.7L2.3 9.6c-.3.3-.3.7 0 1l5.1 5.1c.3.3.7.3.9 0l6.8-6.8c.4-.4.7-1.2.7-1.7V2.9c0-.4-.3-.7-.7-.7l-4.3-.1z"></path><path d="M12.4 7.8c-1.2 0-2.2-1-2.2-2.2 0-1.2 1-2.2 2.2-2.2 1.2 0 2.2 1 2.2 2.2.1 1.2-.9 2.2-2.2 2.2zm0-3.4c-.6 0-1.2.5-1.2 1.2s.5 1.2 1.2 1.2 1.2-.5 1.2-1.2-.5-1.2-1.2-1.2z"></path></svg>